<svg xmlns="http://www.w3.org/2000/svg" width="1000" height="1000" viewBox="0 0 1000 1000" version="1.1"><path d="M 687.500 304.627 C 644.053 309.360, 608.501 332.283, 591.109 366.777 C 583.494 381.879, 579.011 401.450, 579.004 419.619 C 578.992 450.031, 590.258 474.448, 612.304 491.787 C 629.495 505.308, 651.108 512.885, 702.594 523.444 C 746.163 532.378, 760.134 538.382, 766.117 550.741 C 770.363 559.513, 768.268 572.259, 761.211 580.588 C 739.841 605.809, 682.029 595.954, 645.474 560.859 C 634.823 550.635, 628.890 542.663, 621.015 528 C 614.333 515.558, 611.243 511.629, 606.970 510.139 C 604.219 509.181, 604.219 509.181, 605.617 515.173 C 611.853 541.901, 638.438 571.893, 669.500 587.242 C 688.532 596.646, 703.603 600.425, 722 600.405 C 742.841 600.383, 754.470 596.403, 765.555 585.500 C 775.594 575.625, 779.722 563.698, 777.846 549.983 C 776.789 542.251, 774.153 537.174, 768.266 531.534 C 758.120 521.812, 742.927 516.247, 706.500 508.912 C 665.312 500.619, 647.532 495.705, 632.500 488.460 C 601.417 473.478, 586.245 447.530, 587.501 411.500 C 588.154 392.795, 591.491 379.502, 599.176 365 C 616.170 332.931, 647.958 313.342, 688.167 310.160 C 709.203 308.495, 724.862 310.678, 760 320.172 C 787.723 327.663, 794.193 328.157, 803.470 323.489 C 808.964 320.725, 814.105 315.771, 812.816 314.483 C 812.514 314.181, 808.719 315.100, 804.383 316.526 C 790.109 321.220, 787.431 320.988, 753.500 312.120 C 745.250 309.963, 734.225 307.467, 729 306.573 C 719.514 304.949, 695.067 303.803, 687.500 304.627 M 160.500 308.489 C 143.669 311.637, 147.468 311.872, 216.108 311.937 C 283.716 312, 283.716 312, 292.260 330.750 C 296.960 341.063, 314.625 379.650, 331.516 416.500 C 348.407 453.350, 362.573 484.400, 362.995 485.500 C 363.589 487.046, 373.686 467.627, 407.453 400 C 451.142 312.500, 451.142 312.500, 510.321 312 C 569.500 311.500, 569.500 311.500, 563.500 309.500 C 557.820 307.607, 554.833 307.500, 507.500 307.500 C 457.505 307.500, 457.500 307.500, 452.936 309.773 C 442.759 314.840, 442.091 315.952, 405.512 388.742 C 370.422 458.569, 368.699 461.515, 364.322 459.172 C 361.478 457.650, 359.703 454.022, 329.501 388 C 314.280 354.725, 300.235 324.875, 298.290 321.668 C 294.193 314.908, 288.751 310.598, 281.655 308.490 C 274.785 306.450, 171.409 306.449, 160.500 308.489 M 818.706 321.270 C 818.448 324.696, 818.342 350.563, 818.471 378.750 C 818.698 428.365, 818.645 430, 816.821 430 C 815.785 430, 814.776 429.438, 814.580 428.750 C 814.383 428.063, 813.249 423.452, 812.058 418.504 C 805.350 390.623, 784.157 365.454, 758.185 354.526 C 741.944 347.693, 725.946 345.137, 710.138 346.852 C 686.751 349.389, 671.743 357.652, 664.760 371.837 C 661.793 377.863, 661.504 379.269, 661.545 387.479 C 661.598 398.239, 663.765 403.685, 670.441 409.839 C 681.112 419.675, 701.233 425.891, 753.500 435.499 C 770.049 438.540, 783.010 442.543, 795.852 448.576 C 807.927 454.249, 816.003 460.073, 824.684 469.369 C 837.497 483.088, 842.687 496.787, 843.702 519.565 C 845.684 564.050, 826.116 599.454, 789.395 617.822 C 771.076 626.986, 754.535 630.401, 728.500 630.396 C 704.068 630.391, 692.234 628.209, 655 616.845 C 642.293 612.966, 636.431 611.689, 629.500 611.289 C 617.739 610.611, 613.191 611.893, 607.290 617.547 C 598.516 625.954, 599.104 629.412, 598.783 567.583 C 598.627 537.653, 598.158 512.823, 597.740 512.406 C 596.617 511.284, 594.255 514.821, 592.334 520.500 C 590.875 524.815, 590.588 531.539, 590.241 569.595 C 589.812 616.763, 590.030 619.505, 594.645 624.990 C 599.875 631.206, 607.467 632.607, 618.068 629.312 C 628.237 626.152, 637.021 627.040, 659 633.450 C 694.791 643.888, 712.296 646.616, 737.500 645.681 C 774.772 644.298, 802.506 633.100, 824.500 610.553 C 838.969 595.721, 848.478 578.257, 853.226 557.796 C 856.396 544.133, 856.414 516.251, 853.261 503.791 C 848.926 486.663, 841.695 474.516, 828.494 462.187 C 817.947 452.338, 808.726 446.477, 795.654 441.312 C 779.799 435.049, 770.899 432.681, 741.884 427.010 C 696.389 418.117, 682.245 412.351, 676.865 400.509 C 672.971 391.938, 675.895 379.656, 683.328 373.360 C 687.254 370.034, 696.704 365.712, 704 363.904 C 712.866 361.708, 731.868 362.190, 741.933 364.866 C 769.531 372.205, 785.923 386.489, 801.441 416.723 C 807.138 427.823, 811.381 432, 816.958 432 C 822.892 432, 826.361 428.512, 828.637 420.256 C 830.317 414.162, 830.500 409.383, 830.500 371.500 C 830.500 329.500, 830.500 329.500, 827.838 323.821 C 826.061 320.031, 824.178 317.626, 822.176 316.591 C 819.176 315.039, 819.176 315.039, 818.706 321.270 M 144 319.777 C 144 324.274, 146.606 326.783, 156.327 331.647 C 169.099 338.039, 174.397 342.138, 177.176 347.781 C 179.500 352.500, 179.500 352.500, 179.500 465 C 179.500 568.650, 179.363 578.033, 177.759 584.271 C 174.340 597.575, 170.611 602.534, 157.651 611.015 C 148.236 617.176, 148.236 618.112, 157.650 615.605 C 164.711 613.725, 172.526 609.303, 176.216 605.101 C 180.240 600.519, 184.517 591.240, 186.636 582.500 C 188.172 576.163, 188.366 564.239, 188.687 456.660 C 189.041 337.820, 189.041 337.820, 183.079 332.076 C 175.924 325.182, 167.217 320.711, 156.792 318.578 C 145.492 316.265, 144 316.405, 144 319.777 M 559.351 318.902 C 539.468 324.592, 528.222 341.740, 525.046 371.211 C 523.672 383.966, 523.640 548.682, 525.009 563.122 C 528.050 595.191, 538.776 611.542, 559.718 616.033 C 562.565 616.643, 566.156 616.998, 567.697 616.822 C 570.258 616.528, 569.836 616.087, 562.802 611.711 C 548.644 602.904, 543.400 595.903, 539.425 580.500 C 537.756 574.036, 537.591 566.131, 537.267 477.186 C 536.964 394.152, 537.127 379.650, 538.446 372.006 C 541.660 353.380, 546.210 345.748, 560.500 335.013 C 570.490 327.507, 574.942 321.898, 573.627 318.471 C 572.871 316.499, 567.144 316.672, 559.351 318.902 M 224.350 493.500 C 224.603 566.473, 224.836 577.326, 226.284 583.335 C 229.781 597.847, 236.402 607.441, 246.210 612.207 C 252.228 615.132, 261.300 617.375, 264.997 616.853 C 267.156 616.548, 266.470 615.863, 259.915 611.784 C 245.989 603.117, 240.228 594.543, 238.005 579.172 C 236.663 569.898, 236.718 489.555, 238.069 484.689 C 239.415 479.842, 241.479 480.094, 245.145 485.553 C 246.637 487.774, 260.744 518.370, 276.495 553.545 C 292.246 588.720, 306.196 619.326, 307.496 621.558 C 310.803 627.236, 318.075 633.649, 322.645 634.919 C 332.660 637.699, 343.472 634.782, 349.780 627.598 C 353.821 622.996, 358.251 614.172, 391.581 544.341 C 406.198 513.715, 419.691 486.260, 421.566 483.329 C 425.791 476.725, 428.526 476.194, 429.705 481.750 C 430.142 483.813, 430.497 508.225, 430.493 536 C 430.486 586.500, 430.486 586.500, 428.100 592.441 C 424.717 600.863, 418.514 606.682, 406.939 612.293 C 400.152 615.583, 398.228 616.887, 400.090 616.934 C 403.855 617.030, 417.210 613.447, 421.669 611.146 C 430.411 606.635, 436.954 596.351, 438.940 584 C 440.230 575.973, 440.414 411.147, 439.131 412.550 C 438.471 413.272, 358.695 579.740, 341.736 615.784 C 338.780 622.068, 338.780 622.068, 328.805 621.784 C 318.831 621.500, 318.831 621.500, 273.938 521 C 249.247 465.725, 227.924 418.250, 226.554 415.500 C 224.062 410.500, 224.062 410.500, 224.350 493.500 M 147.750 622.689 C 144.978 623.414, 145.598 627.822, 148.906 630.912 C 150.505 632.406, 153.623 634.170, 155.837 634.833 C 162.238 636.751, 182.554 637.955, 208.500 637.954 C 255.475 637.952, 268.117 635.492, 270.499 625.890 C 271.077 623.561, 270.801 623.210, 267.948 622.640 C 264.371 621.924, 150.498 621.971, 147.750 622.689 M 395.750 622.704 C 388.944 623.766, 395.134 632.111, 404.500 634.499 C 414.695 637.098, 435.567 637.983, 486.500 637.975 C 561.024 637.965, 569.996 636.662, 573.791 625.302 C 574.860 622.104, 574.860 622.104, 486.680 622.189 C 438.181 622.236, 397.262 622.468, 395.750 622.704" stroke="none" fill="#fc2424" fill-rule="evenodd"/><path d="M 687.410 310.137 C 648.158 313.275, 615.985 333.280, 599.176 365 C 591.491 379.502, 588.154 392.795, 587.501 411.500 C 586.245 447.530, 601.417 473.478, 632.500 488.460 C 647.532 495.705, 665.312 500.619, 706.500 508.912 C 742.927 516.247, 758.120 521.812, 768.266 531.534 C 774.153 537.174, 776.789 542.251, 777.846 549.983 C 779.722 563.698, 775.594 575.625, 765.555 585.500 C 754.470 596.403, 742.841 600.383, 722 600.405 C 711.343 600.416, 706.605 599.949, 699.500 598.185 C 674.821 592.057, 653.798 580.578, 636.282 563.668 C 618.218 546.227, 608.770 530.616, 605.014 512 C 603.383 503.917, 603.162 503.484, 600.493 503.169 C 597.688 502.837, 597.688 502.837, 598.339 512.669 C 598.697 518.076, 598.992 544.888, 598.995 572.250 C 599.001 628.875, 598.473 625.995, 607.290 617.547 C 613.191 611.893, 617.739 610.611, 629.500 611.289 C 636.431 611.689, 642.293 612.966, 655 616.845 C 692.234 628.209, 704.068 630.391, 728.500 630.396 C 741.218 630.398, 749.287 629.893, 756 628.675 C 780.981 624.139, 801.121 613.976, 816.069 598.362 C 836.195 577.338, 845.140 551.831, 843.702 519.565 C 842.687 496.787, 837.497 483.088, 824.684 469.369 C 816.003 460.073, 807.927 454.249, 795.852 448.576 C 783.010 442.543, 770.049 438.540, 753.500 435.499 C 701.233 425.891, 681.112 419.675, 670.441 409.839 C 663.765 403.685, 661.598 398.239, 661.545 387.479 C 661.504 379.269, 661.793 377.863, 664.760 371.837 C 671.743 357.652, 686.751 349.389, 710.138 346.852 C 731.124 344.576, 754.860 350.436, 772.685 362.293 C 780.163 367.268, 790.650 377.435, 797.137 386 C 803.002 393.744, 809.514 407.929, 812.058 418.504 C 813.249 423.452, 814.383 428.063, 814.580 428.750 C 814.776 429.438, 815.739 430, 816.719 430 C 818.407 430, 818.500 426.920, 818.500 371 C 818.500 312, 818.500 312, 816.263 312 C 814.689 312, 813.620 312.962, 812.651 315.250 C 810.895 319.401, 808.634 321.379, 802.463 324.164 C 793.957 328.002, 786.266 327.274, 760 320.143 C 726.355 311.008, 708.058 308.485, 687.410 310.137 M 138 314.500 C 138 316.866, 138.297 317, 143.542 317 C 151.708 317, 163.633 319.731, 170.808 323.244 C 174.278 324.942, 179.800 328.917, 183.079 332.076 C 189.041 337.820, 189.041 337.820, 188.687 456.660 C 188.366 564.239, 188.172 576.163, 186.636 582.500 C 184.517 591.240, 180.240 600.519, 176.216 605.101 C 170.215 611.936, 157.748 616.965, 146.750 616.988 C 141.147 617, 141 617.070, 141 619.750 C 141 622.500, 141 622.500, 206.542 622.500 C 272.084 622.500, 272.084 622.500, 271.792 620 C 271.517 617.648, 271.055 617.462, 264 616.858 C 242.854 615.048, 231.492 604.949, 226.284 583.335 C 224.836 577.326, 224.603 566.473, 224.350 493.500 C 224.062 410.500, 224.062 410.500, 226.554 415.500 C 227.924 418.250, 249.247 465.725, 273.938 521 C 318.831 621.500, 318.831 621.500, 328.805 621.784 C 338.780 622.068, 338.780 622.068, 341.736 615.784 C 358.695 579.740, 438.471 413.272, 439.131 412.550 C 440.414 411.147, 440.230 575.973, 438.940 584 C 436.982 596.180, 430.410 606.633, 421.970 610.993 C 415.798 614.181, 406.789 616.319, 397 616.918 C 387.880 617.477, 387.500 617.593, 387.500 619.834 C 387.500 622.167, 387.500 622.167, 481 622.084 C 574.500 622.001, 574.500 622.001, 574.500 619.750 C 574.500 617.670, 573.931 617.454, 566.971 616.887 C 558.245 616.177, 556.354 615.687, 549.300 612.306 C 535.473 605.679, 527.517 589.571, 525.009 563.122 C 523.640 548.682, 523.672 383.966, 525.046 371.211 C 527.576 347.735, 535.106 332.274, 548.057 323.963 C 553.862 320.239, 564.406 317, 570.728 317 C 574.618 317, 575 316.776, 575 314.500 C 575 312, 575 312, 513.193 312 C 451.386 312, 451.386 312, 407.575 399.750 C 373.706 467.587, 363.590 487.046, 362.996 485.500 C 362.573 484.400, 348.407 453.350, 331.516 416.500 C 314.625 379.650, 296.960 341.063, 292.260 330.750 C 283.716 312, 283.716 312, 210.858 312 C 138 312, 138 312, 138 314.500" stroke="none" fill="#fc3333" fill-rule="evenodd"/></svg>